# xmcd
#
# Track frame offsets:
#	150
#	17644
#	36483
#	57322
#	77393
#	94339
#	111724
#	130543
#	149089
#	169897
#	183261
#	203784
#
# Disc length: 2966 seconds
#
# Revision: 1
# Processed by: cddbd v1.5.2PL0 Copyright (c) Steve Scherf et al.
# Submitted via: audiograbber 1.83.01
#
DISCID=ab0b940c
DTITLE=Lee Ann Womack - There's More Where That Came From
DYEAR=1900
DGENRE=Country
TTITLE0=There's More Where That Came From
TTITLE1=Ones a Couple
TTITLE2=I May Hate Myself In The Morning
TTITLE3=The Last Time
TTITLE4=He Oughta Know That By Now
TTITLE5=Twenty years And Two Husbands
TTITLE6=Happiness
TTITLE7=When You Get To me
TTITLE8=Painless
TTITLE9=What I Miss About Heaven
TTITLE10=Waiting For The Sun To Shine
TTITLE11=Stubboon
EXTD=
EXTT0=
EXTT1=
EXTT2=
EXTT3=
EXTT4=
EXTT5=
EXTT6=
EXTT7=
EXTT8=
EXTT9=
EXTT10=
EXTT11=
PLAYORDER=
